<?xml version="1.0" encoding="utf-8"?>
<!-- Generator: Adobe Illustrator 27.1.1, SVG Export Plug-In . SVG Version: 6.00 Build 0)  -->
<svg version="1.1" xmlns="http://www.w3.org/2000/svg" xmlns:xlink="http://www.w3.org/1999/xlink" x="0px" y="0px"
	 viewBox="0 0 1200 1200" enable-background="new 0 0 1200 1200" xml:space="preserve">
<g id="Layer_1">
	<path fill="#414B0E" d="M108.8,434.2c0-0.2,0-0.4,0-0.6c0,0.1,0,0.2,0,0.3V434.2z"/>
	<path fill="#414B0E" d="M108.8,434.2c0-0.2,0-0.4,0-0.6c0,0.1,0,0.2,0,0.3V434.2z"/>
	<path fill="#EBC213" d="M547.8,569c0.1,5.1-0.1,10.3-0.7,15.5c-0.2,2-0.5,4-0.8,6c-0.9,5.8-2.1,11.7-3.6,17.6
		c-12.5,47.8-44.6,97.3-63.6,130.3c-13.9,24.1-49,52.9-77.4,73.7c-8.5,6.2-16.3,11.6-22.8,16c-10.8,7.3-17.8,11.7-17.8,11.7
		s-2.9,1.3-8.1,3.6c-25.4,11.2-104.2,45-136.5,49.5c-19.5,2.7-39.8-2.8-56-9.8c-5.6-2.4-10.6-5-15-7.6c-3.2-1.9-6.1-3.7-8.5-5.4
		c-3.8-2.6-6.5-4.9-7.8-6.5c-2.8-3.4-5-7.7-6.5-11.5c-2-5-2.9-9.2-2.9-9.2s7-12.3,23-28c1.1-1,2.2-2.1,3.3-3.1
		c18.3-17,71.1-38.3,141.7-73.6c21.1-10.6,40.2-28.6,56.5-48.8c12.2-15,22.9-31.1,31.8-46.1c8.5-14.1,15.3-27.4,20.3-37.7
		c2.7-5.3,4.7-9.9,6.3-13.5c2.5-5.6,3.8-8.8,3.8-8.8s14.7-42.8,24.5-67.2c0.4-1.1,0.9-2.2,1.3-3.3c1.3-3.2,2.6-6,3.6-8.2
		c8.6-18.1,21.8-35.2,21.8-35.2s6.5-24.8,9.3-46.2c1-7.9-0.5-14.5-2.9-19.7c0,0,0,0,0,0c-4-8.8-10.4-13.5-10.4-13.5l2.2-8.5l0.1-0.5
		l0.7-2.8l0-0.2l2.8-0.9l0.3-0.1l13.4-4.7h0l0.5-0.1l19,11.2l6.1,3.6l7.7,71.9c0,0,0.7,0.9,1.8,2.5c2.7,3.7,8.1,11.4,14.1,22.2
		c0.2,0.3,0.3,0.6,0.5,0.9c10.6,19.5,22.9,48.4,24.7,80.8C547.7,566.4,547.8,567.8,547.8,569z"/>
	<g>
		<path fill="#FC9F00" d="M557.3,592.1c-0.6,6.3-1.6,12.6-2.9,19c-1.6,7.9-3.6,16-6,24c-13.3,44.2-37,87.9-51.8,118.6
			c-12.8,26.4-46.6,58.9-74,82.4c-8.2,7-15.8,13.2-22.1,18.2c-10.4,8.3-17.3,13.4-17.3,13.4S279.6,923.5,241.1,931
			c-10.5,2-21.4,1.5-31.7-0.5c-20.1-3.9-38.4-13.3-48.8-20.5c-3.9-2.7-6.7-5-8.1-6.6c-6.9-8.2-10.3-21.8-10.3-21.8s1-2.2,3.3-6
			c2.6-4.4,6.8-10.8,12.9-18.4c1.7-2.1,3.6-4.4,5.6-6.6c1-1.2,2-2.3,3.1-3.5c17.3-18.8,67.9-43.4,135.4-83.4
			c0.9-0.6,1.9-1.2,2.9-1.7c50.3-29.9,86.7-107.3,102.7-147.1c2.4-5.8,4.3-10.8,5.7-14.8c2.2-6.1,3.4-9.6,3.4-9.6s1.2-4.4,3.1-11.2
			c4.4-15.4,12.4-43.5,18.4-61.9c0.4-1.3,0.8-2.4,1.2-3.6c1.2-3.5,2.3-6.6,3.2-9c7.8-19.8,20.2-38.7,20.2-38.7s5.4-27,7.3-50
			c0.7-8.5-1.2-15.5-3.8-21c0,0,0,0,0,0c-4.1-8.8-10.2-13.5-10.9-14.1c0,0-0.1,0-0.1,0l2.6-12.8l0-0.2l2.2-0.9l0.8-0.4l13.1-5.6h0
			l0.4-0.2l25.7,14.8l10.9,76.8c0,0,0.8,1,2.2,3c3,4,8.5,11.9,14.7,22.8c11.6,20.4,25.5,51.3,28.8,86.6c0.1,1.4,0.2,2.8,0.3,4.2
			C558.3,576.6,558.1,584.3,557.3,592.1z"/>
	</g>
	<path fill="#9C4F47" d="M488.3,368.5c0,0,7.1,9.8,3.4,19.2s-4.1,13.6-6,25.5c-1.8,11.9-8.8,12-8.8,12l-6.4-1c0,0,3.8-19.5-4-30
		c-7.8-10.5-10.7-12.9-10.7-12.9l2.2-13l16-7.5L488.3,368.5z"/>
	<path fill="#7E895E" d="M822.3,440.8c-2.4-31.1-13.3-57.3-32.9-78.7c-19.6-21.3-43.1-37.6-70.6-49c-30.4-12.4-62.1-20-95.2-22.8
		c-33.1-2.8-66.1-1.7-99.1,3.4c-33,5-65.5,13.3-97.3,24.8c-31.9,11.5-61.6,25.4-89.1,41.6c-28,16.3-54.4,35.6-79,58.1
		c-24.7,22.5-44.5,48.4-59.4,77.7c-5.7,11.7-10.4,24.5-14.1,38.6c-3.7,14-5.8,28-6,42c-0.3,14.1,1.4,27.9,5.1,41.5
		s10.1,25.7,19.3,36.2c11.6,13.1,24.5,21.5,38.8,25.5c19,5.3,39.5,4.8,58.5-0.5c16.4-4.5,37-12.4,44.9-28c4.2-8.3,4.6-18.5,0.2-26.7
		c-4.4-8.1-14-13.8-23.5-13.2c-6.4,0.4-12.4,3.5-17.6,7.1c-12,8.2-20.1,10.5-34.4,5.7c-2.9-1-5.8-2-8.4-3.5
		c-19-11.4-18.6-43.4-15.7-61.8c4.5-29.5,15.1-57.2,31.7-83c16.5-25.8,36.2-48.1,58.8-67c27.7-23.2,58.1-42.5,91.3-57.9
		c33.1-15.4,67.6-26,103.4-31.8c14.3-2.2,29.6-3.8,45.7-4.7c16.1-0.9,32-0.5,47.8,1.2c15.8,1.8,31.1,5.1,46.2,10.1
		c15,5,28.8,12.2,41.5,21.9c9.6,7.4,17.3,15.6,23.1,24.6c2.6,3.8,4.7,7.7,6.6,11.8c6.1,13.7,9,28,8.8,43c-0.3,15.1-3.2,30-8.7,45
		c-5.5,14.9-12.8,28.7-22,41.4c-7.1,9.8-14.8,19.1-23.5,27.6c-13.3,12.8-28.2,25.3-44.8,34.3c-1.6,0.9-3.3,1.7-5,2.5
		c-7.1,3.7-14.7,6.9-22.7,8.5c-10.3,2-21.3-1.3-31.4,2c-11.5,3.8-18.1,16.8-15.3,28.1c2.8,11.3,13.9,19.9,25.9,21.4
		c6.6,0.8,13.5-0.3,19.8,1.6c9.6,2.8,13.9,11.2,17.9,19.2c3.8,7.5,6.2,17,7.5,25.2c2.7,16.3,2.6,32.3-0.2,48.1
		c-2.8,15.2-7.5,30.1-14.2,44.5c-6.8,14.5-15,27.8-24.9,40.2c-9.9,12.4-21.1,23.4-33.6,33c-6.9,5.3-14.2,10-22,13.9
		c-7.1,3.7-15.4,8.1-23.6,8.8c-5.9,0.5-12.1,0.9-17.6-1.2c-14.1-5.3-19.9-21.1-32.7-28.2c-2.9-1.6-6.2-2.7-9.5-3
		c-5.7-0.4-11.6,1.8-15.4,5.8c-16.6,17.3-2,46.9,16.6,55.6c33.1,15.5,75.9,13.5,110.9,5.4c15.6-3.7,30.5-8.8,44.8-15.5
		c14.2-6.6,27.2-15,39-25.2c8.7-7.4,16.4-15.8,23.1-25.2c2.5-3.4,4.8-6.9,7-10.5c8.1-13.6,14.3-28.2,18.3-43.7
		c4-15.4,5.9-31,5.4-46.5c-0.5-15.5-3.1-30.8-8-46c-4.9-15.1-12.2-28.9-21.8-41.5c-8.2-8-16.9-16.1-25.8-24.2
		c-3.3-2.9-6.7-5.6-10.4-7.9c-6.3-4.1-13.3-7.3-20.8-9.7c6.3,0.1,12.7-0.2,19.1-1c10.4-1.2,20.7-3.7,31.1-7.3
		c16.7-5.9,32.2-12.3,46.8-19.5c14-6.6,26.9-14.8,38.7-24.4c2-1.6,4-3.3,5.9-5c9.3-8.4,17.5-17.6,24.5-27.7
		c8.4-12.2,14.7-25.5,18.9-39.9C822.6,471.8,823.9,456.6,822.3,440.8z"/>
	<g>
		<path fill="#FC9F00" d="M719.3,394.3c-3.6-8.1-9.1-15.3-16.6-22h-86.9l28.6,178.3c10.9-6.4,22.4-15.6,35-27.8
			c6.9-6.7,13.7-14.6,20.6-24.1c7.7-10.5,14-22.4,18.8-35.2c4.5-12.1,6.8-24.5,7.1-36.8C726.1,415.3,723.9,404.7,719.3,394.3z
			 M921,372.3l-79.1,224c-25.1,71.7-39.1,112.6-42.2,122.8l-19-134.9c-11.5,8.6-23.8,16-36.8,22.2c-13.2,6.5-27.7,12.7-43.1,18.3
			c3.6,3.3,7,6.7,10.3,9.9l1.4,1.3l1.1,1.5c11.4,14.8,20.1,31.4,25.9,49.1c5.6,17.4,8.6,35.2,9.2,52.9c0.5,17.9-1.6,35.9-6.2,53.5
			c-4.6,17.6-11.7,34.5-21,50.2c-7.1,11.9-15.5,22.7-24.9,32.2l5.5,34.2h128.2l198.8-537.3H921z"/>
	</g>
</g>
<g id="Layer_2">
</g>
</svg>
