<?xml version="1.0" encoding="utf-8"?>
<!-- Generator: Adobe Illustrator 27.1.1, SVG Export Plug-In . SVG Version: 6.00 Build 0)  -->
<svg version="1.1" xmlns="http://www.w3.org/2000/svg" xmlns:xlink="http://www.w3.org/1999/xlink" x="0px" y="0px"
	 viewBox="55 375 1110 335" style="enable-background:new 0 0 1200 1200;" xml:space="preserve">
<style type="text/css">
	.st0{fill:#FCB31E;}
	.st1{fill:#CB6F18;}
	.st2{fill:#235235;}
	.st3{fill:#417C0E;}
	.st4{fill:#7BB635;}
	.st5{fill:#00681E;}
	.st6{fill:#438D35;}
	.st7{fill:#00951E;}
	.st8{fill:#41B90E;}
	.st9{fill:#E6D650;}
	.st10{fill:#FCCF1E;}
	.st11{fill:#C53D0E;}
	.st12{fill:#FC9F00;}
	.st13{fill:#414B0E;}
	.st14{fill:#EBC213;}
	.st15{fill:#CAAC0D;}
	.st16{fill:#FFC01E;}
	.st17{fill:#F2AC00;}
	.st18{fill:#9C4F47;}
	.st19{fill:#A88B00;}
	.st20{fill:#727A00;}
	.st21{fill:#72AE00;}
	.st22{fill:#B5530D;}
</style>
<g id="Layer_1">
	<path class="st13" d="M82.8,384c0-0.2,0-0.4,0-0.6c0,0.1,0,0.2,0,0.3V384z"/>
	<path class="st13" d="M82.8,384c0-0.2,0-0.4,0-0.6c0,0.1,0,0.2,0,0.3V384z"/>
	<path class="st11" d="M174.8,654.6c-0.2-1.6-0.6-3.2-1-4.7c-1.1-3.7-2.8-7.1-5.1-10.1c-2.5-3.4-5.8-6.1-9.8-8.2
		c-4.1-2.1-8.1-3.4-12.2-3.9c4.1-0.4,7.9-1.8,11.3-4.4c3.4-2.6,6-5.8,7.8-9.8c2-4.4,3-9.2,3.1-14.5c0.1-5.3-0.8-10.1-2.7-14.5
		c-1.2-2.9-3-5.5-5.2-7.8c-2.2-2.4-4.7-4.4-7.5-6c-4.9-2.7-10.1-4.5-15.8-5.4c-5.7-0.9-11.3-1.2-16.9-0.9c-1.1,0-3.1,0-6,0.1
		c-2.9,0.1-6.1,0.1-9.8,0.1H65.5c0.2,22.7,0.4,45.2,0.6,67.7c0.1,22.4,0.2,45,0.4,67.9h27.9c9.2,0,18.5,0.1,27.8,0.2
		c0.1,0,0.2-0.1,0.2-0.2c7.6,0,15-1.1,22.2-3.4c3.9-1.1,7.6-2.7,11.3-4.7c2.8-1.6,5.4-3.3,7.8-5.4c0.7-0.6,1.4-1.2,2-1.9
		c3.9-3.7,6.6-8.3,8.2-13.8C175.3,665.6,175.6,660.3,174.8,654.6z M129.6,653.9c-1,1.1-2.1,2.1-3.5,2.8c-1.3,0.7-2.7,1.3-4.2,1.7
		v-17c1.4,0.3,2.7,0.6,3.9,0.9c1.2,0.4,2.4,1,3.4,1.9c1.2,1.2,1.9,2.8,2,4.8C131.3,650.9,130.7,652.6,129.6,653.9z M132.6,597.5
		c-0.5,2-1.4,3.5-2.8,4.5c-1.1,1-2.4,1.7-3.8,2.1c-1.4,0.4-2.9,0.6-4.4,0.7V588c1.9,0.1,3.8,0.5,5.9,1c2.1,0.6,3.6,1.7,4.6,3.3
		C132.9,593.7,133.1,595.5,132.6,597.5z"/>
	<path class="st11" d="M174.8,654.6c-0.2-1.6-0.6-3.2-1-4.7c-1.1-3.7-2.8-7.1-5.1-10.1c-1.2-1.7-2.7-3.2-4.3-4.6
		c-1.6-1.4-3.5-2.6-5.5-3.6c-4.1-2.1-8.1-3.4-12.2-3.9c4.1-0.4,7.9-1.8,11.3-4.4c3.4-2.6,6-5.8,7.8-9.8c2-4.4,3-9.2,3.1-14.5
		c0.1-5.3-0.8-10.1-2.7-14.5c-1.2-2.9-3-5.5-5.2-7.8c-2.2-2.4-4.7-4.4-7.5-6c-4.9-2.7-10.1-4.5-15.8-5.4c-5.7-0.9-11.3-1.2-16.9-0.9
		c-1.1,0-3.1,0-6,0.1c-2.9,0.1-6.1,0.1-9.8,0.1H65.5c0.2,22.7,0.4,45.2,0.6,67.7c0.1,11.9,0.2,36.7,0.3,52.9c0,0.2,0,1.2,0,2.6
		c0,4,0.1,11.3,0.1,12.3h15.1h12.8c9.2,0,18.5,0.1,27.8,0.2c0.1,0,0.2-0.1,0.2-0.2c7.6,0,15-1.1,22.2-3.4c3.9-1.1,7.6-2.7,11.3-4.7
		c2.8-1.6,5.4-3.3,7.8-5.4c0.7-0.6,1.4-1.2,2-1.9c3.9-3.7,6.6-8.3,8.2-13.8C175.3,665.6,175.6,660.3,174.8,654.6z M129.6,653.9
		c-1,1.1-2.1,2.1-3.5,2.8c-1.3,0.7-2.7,1.3-4.2,1.7v-17c1.4,0.3,2.7,0.6,3.9,0.9c1.2,0.4,2.4,1,3.4,1.9c1.2,1.2,1.9,2.8,2,4.8
		C131.3,650.9,130.7,652.6,129.6,653.9z M132.6,597.5c-0.5,2-1.4,3.5-2.8,4.5c-1.1,1-2.4,1.7-3.8,2.1c-1.4,0.4-2.9,0.6-4.4,0.7V588
		c1.9,0.1,3.8,0.5,5.9,1c2.1,0.6,3.6,1.7,4.6,3.3C132.9,593.7,133.1,595.5,132.6,597.5z"/>
	<path class="st11" d="M287.2,689.8c-1.2-4.5-2.7-9.7-4.4-15.8c-0.7-2.7-1.5-5.5-2.3-8.4c-1-3.6-2.1-7.4-3.2-11.4
		c-1.2-4.3-2.5-8.7-3.7-13.2v0c-0.8-2.8-1.6-5.6-2.4-8.5c-2-7.4-4.1-14.6-6.1-21.7c-2-7.1-3.8-13.7-5.5-19.7
		c-1.7-6-3.1-11.3-4.3-15.8c-1.2-4.5-2.1-7.7-2.7-9.7c-0.1-0.2-0.2-0.5-0.1-0.7c0.1-0.2,0-0.4-0.3-0.4h-54.8
		c-0.7,2.7-2.1,7.6-4,14.6c-1.9,7-4.2,15-6.7,24.1c-2.6,9.1-5.2,18.7-8,28.8c-0.7,2.5-1.4,5-2.1,7.4c2.4,4.2,4.1,9,4.8,14.1
		c0.9,6.6,0.6,12.9-1,18.9l0,0.2c-2,6.6-5.3,12.2-10,16.8c-2.8,2.8-6,5.3-9.6,7.4c-0.3,1.1-0.5,2-0.7,2.7h26.7
		c8.8,0,17.8,0.1,26.7,0.2l3.9-15.1h14.2l3.9,15.1c9.1,0,18.2,0,27.2-0.1c3.7,0,7.4,0,11.1-0.1c2.2,0,4.5,0,6.7,0c3.1,0,6.2,0,9.4,0
		C289.4,697.5,288.4,694.3,287.2,689.8z M222.2,649.1c0.2-1.2,0.5-2.5,0.8-3.6c0.3-1.2,0.6-2.5,0.8-3.8h3c0.3,1.4,0.5,2.7,0.8,3.8
		c0.3,1.2,0.6,2.4,0.8,3.6H222.2z"/>
	<path class="st11" d="M287.2,689.8c-1.2-4.5-2.7-9.7-4.4-15.8c-0.7-2.7-1.5-5.5-2.3-8.4c-1-3.6-2.1-7.4-3.2-11.4
		c-1.2-4.3-2.5-8.7-3.7-13.2v0c-0.8-2.8-1.6-5.6-2.4-8.5c-2-7.4-4.1-14.6-6.1-21.7c-2-7.1-3.8-13.7-5.5-19.7
		c-1.7-6-3.1-11.3-4.3-15.8c-1.2-4.5-2.1-7.7-2.7-9.7c-0.1-0.2-0.2-0.5-0.1-0.7c0.1-0.2,0-0.4-0.3-0.4h-54.8
		c-0.7,2.7-2.1,7.6-4,14.6c-1.9,7-4.2,15-6.7,24.1c-2.6,9.1-5.2,18.7-8,28.8c-0.7,2.5-1.4,5-2.1,7.4c2.4,4.2,4.1,9,4.8,14.1
		c0.9,6.6,0.6,12.9-1,18.9l0,0.2c-2,6.6-5.3,12.2-10,16.8c-2.8,2.8-6,5.3-9.6,7.4c-0.3,1.1-0.5,2-0.7,2.7h26.7
		c8.8,0,17.8,0.1,26.7,0.2l3.9-15.1h14.2l3.9,15.1c9.1,0,18.2,0,27.2-0.1c3.7,0,7.4,0,11.1-0.1c2.2,0,4.5,0,6.7,0c3.1,0,6.2,0,9.4,0
		C289.4,697.5,288.4,694.3,287.2,689.8z M222.2,649.1c0.2-1.2,0.5-2.5,0.8-3.6c0.3-1.2,0.6-2.5,0.8-3.8h3c0.3,1.4,0.5,2.7,0.8,3.8
		c0.3,1.2,0.6,2.4,0.8,3.6H222.2z"/>
	<path class="st11" d="M403.8,699.5v0.8c-9.4,0-18.7,0-27.9-0.1c-9.3-0.1-18.6-0.2-27.9-0.3c-2-5.7-3.9-11.5-5.8-17.2
		c-1.9-5.7-3.8-11.5-5.8-17.2c0,5.9,0,11.6,0.1,17.3c0.1,5.7,0.1,11.4,0.1,17.3c-9.4-0.1-18.7-0.2-27.9-0.2h-11.4l-0.8-2.4
		c-0.6-1.8-1.5-4.9-2.7-9.5l-4.4-15.8c-1.7-6.1-3.5-12.6-5.5-19.8c-1.1-4.1-2.3-8.2-3.5-12.3c0-2.7,0-5.4,0-8.1
		c-0.1-22.4-0.3-45-0.6-67.7h27.9c9.2,0,18.5-0.1,27.8-0.2c2,5.1,3.9,10.1,5.8,15.1c1.9,4.9,3.8,9.9,5.8,14.9c0-5,0-9.9,0.1-14.9
		c0.1-4.9,0-9.9-0.1-14.9h55.9c0,2.7,0,7.6,0.1,14.7c0.1,7,0.1,15.1,0.2,24.3c0.1,9.2,0.1,18.8,0.2,29c0.1,10.2,0.1,19.8,0.2,29
		c0,0.6,0,1.2,0,1.9c0.1,8.4,0.1,15.9,0.2,22.4C403.8,692,403.8,696.7,403.8,699.5z"/>
	<path class="st11" d="M403.7,685.6c-0.1-6.6-0.1-14-0.2-22.4c0-0.6,0-1.2,0-1.9c-0.1-9.2-0.1-18.8-0.2-29
		c-0.1-10.2-0.1-19.8-0.2-29c-0.1-9.2-0.1-17.3-0.2-24.3c-0.1-7-0.1-11.9-0.1-14.7H347c0.1,5,0.2,9.9,0.1,14.9
		c-0.1,4.9-0.1,9.9-0.1,14.9c-2-5-3.9-9.9-5.8-14.9c-1.9-4.9-3.8-9.9-5.8-15.1c-9.3,0.1-18.6,0.2-27.8,0.2h-27.9
		c0.2,22.7,0.4,45.2,0.6,67.7c0,2.7,0,5.4,0,8.1c1.2,4.1,2.3,8.3,3.5,12.3c2,7.1,3.8,13.7,5.5,19.8l4.4,15.8
		c1.3,4.6,2.2,7.7,2.7,9.5l0.8,2.4h11.4c9.3,0,18.6,0.1,27.9,0.2c0-5.9,0-11.6-0.1-17.3c-0.1-5.7-0.1-11.4-0.1-17.3
		c2,5.7,3.9,11.5,5.8,17.2c1.9,5.7,3.8,11.5,5.8,17.2c9.3,0.1,18.7,0.2,27.9,0.3c9.3,0.1,18.6,0.1,27.9,0.1v-0.8
		C403.8,696.7,403.8,692,403.7,685.6z"/>
	<path class="st11" d="M520.7,689.8c-1.2-4.5-2.7-9.7-4.4-15.8c-0.8-2.7-1.5-5.5-2.3-8.4c-1-3.6-2.1-7.4-3.2-11.3
		c-2-7.1-4-14.3-6.1-21.7c-2.1-7.4-4.1-14.6-6.1-21.7c-2-7.1-3.8-13.7-5.5-19.7c-1.7-6-3.1-11.3-4.3-15.8c-1.2-4.5-2.1-7.7-2.7-9.7
		c-0.1-0.2-0.2-0.5-0.1-0.7c0.1-0.2,0-0.4-0.3-0.4h-54.8c-0.8,2.7-2.1,7.6-4,14.6c-1.9,7-4.2,15-6.7,24.1c-2.6,9.1-5.2,18.7-8,28.8
		c-0.7,2.4-1.3,4.8-2,7.2c0,7.6,0.1,15,0.1,22c0.1,9.2,0.1,17.2,0.2,24.3c0.1,6.5,0.1,11.1,0.1,14h9.7c8.8,0,17.8,0.1,26.7,0.2
		l3.9-15.1h14.2l3.9,15.1c9.1,0,18.2,0,27.2-0.1c5.9,0,11.9-0.1,17.9-0.1c3.1,0,6.2,0,9.3,0C522.8,697.5,521.9,694.3,520.7,689.8z
		 M455.6,649.1c0.2-1.2,0.5-2.5,0.8-3.6c0.3-1.2,0.6-2.5,0.8-3.8h3c0.2,1.4,0.5,2.7,0.8,3.8c0.3,1.2,0.6,2.4,0.8,3.6H455.6z"/>
	<path class="st11" d="M403.7,685.6c-0.1-6.6-0.1-14-0.2-22.4c-2.2,8.2-4.2,15.4-6,21.8c-1.9,7-3.3,11.8-4,14.6h10.3
		C403.8,696.7,403.8,692,403.7,685.6z M520.7,689.8c-1.2-4.5-2.7-9.7-4.4-15.8c-0.8-2.7-1.5-5.5-2.3-8.4c-1-3.6-2.1-7.4-3.2-11.3
		c-2-7.1-4-14.3-6.1-21.7c-2.1-7.4-4.1-14.6-6.1-21.7c-2-7.1-3.8-13.7-5.5-19.7c-1.7-6-3.1-11.3-4.3-15.8c-1.2-4.5-2.1-7.7-2.7-9.7
		c-0.1-0.2-0.2-0.5-0.1-0.7c0.1-0.2,0-0.4-0.3-0.4h-54.8c-0.8,2.7-2.1,7.6-4,14.6c-1.9,7-4.2,15-6.7,24.1c-2.6,9.1-5.2,18.7-8,28.8
		c-0.7,2.4-1.3,4.8-2,7.2c0,7.6,0.1,15,0.1,22c0.1,9.2,0.1,17.2,0.2,24.3c0.1,6.5,0.1,11.1,0.1,14h9.7c8.8,0,17.8,0.1,26.7,0.2
		l3.9-15.1h14.2l3.9,15.1c9.1,0,18.2,0,27.2-0.1c5.9,0,11.9-0.1,17.9-0.1c3.1,0,6.2,0,9.3,0C522.8,697.5,521.9,694.3,520.7,689.8z
		 M455.6,649.1c0.2-1.2,0.5-2.5,0.8-3.6c0.3-1.2,0.6-2.5,0.8-3.8h3c0.2,1.4,0.5,2.7,0.8,3.8c0.3,1.2,0.6,2.4,0.8,3.6H455.6z"/>
	<path class="st11" d="M637.3,699.5v0.8c-9.3,0-18.7,0-27.9-0.1c-9.3-0.1-18.6-0.2-27.9-0.3c-2-5.7-3.9-11.5-5.8-17.2
		c-1.9-5.7-3.8-11.5-5.8-17.2c0,5.9,0,11.6,0.1,17.3c0.1,5.7,0.1,11.4,0.1,17.3c-9.3-0.1-18.7-0.2-27.9-0.2h-11.4l-0.7-2.4
		c-0.7-2.2-1.6-5.5-2.7-9.5l-4.7-16.9c-1.6-5.7-3.3-11.9-5.2-18.6c-1.1-4.1-2.3-8.2-3.5-12.4c0-2.7,0-5.4,0-8.1
		c-0.1-22.4-0.3-45-0.6-67.7H541c9.2,0,18.5-0.1,27.9-0.2c2,5.1,3.9,10.1,5.8,15.1c1.9,4.9,3.8,9.9,5.8,14.9c0-5,0-9.9,0.1-14.9
		c0.1-4.9,0-9.9-0.1-14.9h55.9c0,2.7,0,7.6,0.1,14.7c0.1,7,0.1,15.1,0.2,24.3c0.1,9.2,0.1,18.8,0.2,29c0.1,10.2,0.1,19.8,0.2,29
		c0,0.6,0,1.2,0,1.9c0.1,8.4,0.1,15.9,0.2,22.4C637.3,692,637.3,696.7,637.3,699.5z"/>
	<path class="st11" d="M637.2,685.6c-0.1-6.6-0.1-14-0.2-22.4c0-0.6,0-1.2,0-1.9c-0.1-9.2-0.1-18.8-0.2-29
		c-0.1-10.2-0.1-19.8-0.2-29c-0.1-9.2-0.1-17.3-0.2-24.3c-0.1-7-0.1-11.9-0.1-14.7h-55.9c0.1,5,0.2,9.9,0.1,14.9
		c-0.1,4.9-0.1,9.9-0.1,14.9c-2-5-3.9-9.9-5.8-14.9c-1.9-4.9-3.8-9.9-5.8-15.1c-9.4,0.1-18.6,0.2-27.9,0.2h-27.8
		c0.2,22.7,0.4,45.2,0.6,67.7c0,2.7,0,5.4,0,8.1c1.2,4.2,2.3,8.3,3.5,12.4c1.9,6.7,3.6,12.9,5.2,18.6l4.7,16.9
		c1.1,4,2.1,7.4,2.7,9.5l0.7,2.4h11.4c9.3,0,18.6,0.1,27.9,0.2c0-5.9,0-11.6-0.1-17.3c-0.1-5.7-0.1-11.4-0.1-17.3
		c2,5.7,3.9,11.5,5.8,17.2c1.9,5.7,3.8,11.5,5.8,17.2c9.3,0.1,18.6,0.2,27.9,0.3c9.3,0.1,18.6,0.1,27.9,0.1v-0.8
		C637.3,696.7,637.3,692,637.2,685.6z M520.7,689.8c-1.2-4.5-2.7-9.7-4.4-15.8c-0.8-2.7-1.5-5.5-2.3-8.4c0.1,11.3,0.1,22.6,0.2,33.9
		c3.1,0,6.2,0,9.3,0C522.8,697.5,521.9,694.3,520.7,689.8z"/>
	<path class="st11" d="M754.4,690.6c-0.9-3.1-1.8-6.5-2.9-10.3c-0.5-1.8-1-3.6-1.5-5.5c-1.7-6-3.5-12.6-5.5-19.7
		c-2-7.1-4-14.3-6.1-21.7s-4.1-14.6-6.1-21.7c-2-7.1-3.8-13.7-5.5-19.7c-1.7-6-3.1-11.3-4.3-15.8c-1.2-4.5-2.1-7.7-2.7-9.7
		c-0.1-0.2-0.2-0.5-0.1-0.7c0.1-0.2,0-0.4-0.3-0.4h-54.8c-0.7,2.7-2.1,7.6-4,14.6c-1.9,7-4.2,15-6.7,24.1c-2.6,9.1-5.2,18.7-8,28.8
		c-0.7,2.4-1.3,4.8-2,7.2c0,4,0.1,7.9,0.1,11.7l0.1,15.3c0.1,7.1,0.1,13.6,0.2,19.3c0.1,6.5,0.1,11.1,0.1,14h9.7
		c8.8,0,17.8,0.1,26.7,0.2l3.9-15.1h14.2l3.9,15.1c9.1,0,18.2,0,27.2-0.1c7.7-0.1,15.4-0.1,23.1-0.1c1.4,0,2.7,0,4.1,0
		C756.6,698.3,755.6,695,754.4,690.6z M689.3,649.8c0.2-1.2,0.5-2.5,0.8-3.6c0.3-1.2,0.6-2.5,0.8-3.8h3c0.2,1.4,0.5,2.7,0.8,3.8
		c0.3,1.2,0.6,2.4,0.8,3.6H689.3z"/>
	<path class="st11" d="M637.5,686.4c-0.1-6.6-0.1-14-0.2-22.4c-2.2,8.2-4.2,15.4-6,21.8c-1.9,7-3.3,11.8-4,14.6h10.3
		C637.5,697.4,637.5,692.8,637.5,686.4z M754.4,690.6c-0.9-3.1-1.8-6.5-2.9-10.3c-0.5-1.8-1-3.6-1.5-5.5c-1.7-6-3.5-12.6-5.5-19.7
		c-2-7.1-4-14.3-6.1-21.7s-4.1-14.6-6.1-21.7c-2-7.1-3.8-13.7-5.5-19.7c-1.7-6-3.1-11.3-4.3-15.8c-1.2-4.5-2.1-7.7-2.7-9.7
		c-0.1-0.2-0.2-0.5-0.1-0.7c0.1-0.2,0-0.4-0.3-0.4h-54.8c-0.7,2.7-2.1,7.6-4,14.6c-1.9,7-4.2,15-6.7,24.1c-2.6,9.1-5.2,18.7-8,28.8
		c-0.7,2.4-1.3,4.8-2,7.2c0,4,0.1,7.9,0.1,11.7l0.1,15.3c0.1,7.1,0.1,13.6,0.2,19.3c0.1,6.5,0.1,11.1,0.1,14h9.7
		c8.8,0,17.8,0.1,26.7,0.2l3.9-15.1h14.2l3.9,15.1c9.1,0,18.2,0,27.2-0.1c7.7-0.1,15.4-0.1,23.1-0.1c1.4,0,2.7,0,4.1,0
		C756.6,698.3,755.6,695,754.4,690.6z M689.3,649.8c0.2-1.2,0.5-2.5,0.8-3.6c0.3-1.2,0.6-2.5,0.8-3.8h3c0.2,1.4,0.5,2.7,0.8,3.8
		c0.3,1.2,0.6,2.4,0.8,3.6H689.3z"/>
	<path class="st11" d="M827.9,595.1c-3,5.4-5.3,11.1-6.9,17.2c-1.6,6.1-2.5,12.2-2.6,18.4c-0.1,6.2,0.5,12.3,1.9,18.4
		c0.9,4.2,2.2,8.3,3.9,12.2c1.5-22.5,3-45,4.5-67.4C828.4,594.2,828.2,594.6,827.9,595.1z M944.3,623.2c-1-7.4-2.9-14.4-5.8-21.1
		c-0.2-0.5-0.4-0.9-0.6-1.4c-2.6-5.5-5.9-10.5-9.7-15.1c-3.9-4.6-8.2-8.6-13.1-12c-4.9-3.4-10.1-6-15.8-7.9
		c-5.7-1.9-11.7-2.8-18-2.8c-5.6,0-11,0.8-16.2,2.3c-5.2,1.6-10.1,3.7-14.7,6.5c-4.6,2.8-8.8,6.2-12.6,10.1
		c-0.6,0.6-1.1,1.2-1.6,1.8l-0.1,2.1c-1.9,29.4-3.9,58.5-5.8,86.8c1.9,2.9,4.1,5.7,6.5,8.4c3.9,4.4,8.3,8.1,13.1,11.2
		c4.8,3.1,10,5.6,15.5,7.3c5.5,1.7,11.3,2.6,17.3,2.6c7.7,0,15-1.5,21.9-4.6c6.8-3,13-7.1,18.3-12.2c5.4-5,9.9-10.9,13.5-17.7
		c1-1.9,1.9-3.8,2.8-5.7c2.2-5,3.7-10,4.6-15.3C945.1,638.9,945.3,631.1,944.3,623.2z M888.8,616.1c-0.3,1.4-0.8,2.7-1.6,3.9
		c-0.8,1.2-1.7,2.1-2.7,2.8c-1.1,0.7-2.2,1-3.5,1c-1.2,0-2.4-0.3-3.4-0.9c-2.5-1.6-4-4-4.6-7c-0.6-3.1-0.1-5.8,1.4-8.3
		c0.6-1.1,1.5-2.1,2.7-3c1.2-0.9,2.5-1.3,3.8-1.3c2,0,3.7,0.9,5.2,2.6c1.5,1.7,2.4,3.7,2.6,5.8C889.1,613.2,889.1,614.7,888.8,616.1
		z"/>
	<path class="st11" d="M944.3,623.2c-1-7.4-2.9-14.4-5.8-21.1c-0.2-0.5-0.4-0.9-0.6-1.4c-2.6-5.5-5.9-10.5-9.7-15.1
		c-3.9-4.6-8.2-8.6-13.1-12c-4.9-3.4-10.1-6-15.8-7.9c-5.7-1.9-11.7-2.8-18-2.8c-5.6,0-11,0.8-16.2,2.3c-5.2,1.6-10.1,3.7-14.7,6.5
		c-4.6,2.8-8.8,6.2-12.6,10.1c-0.6,0.6-1.1,1.2-1.6,1.8l-0.1,2.1c-1.9,29.4-3.9,58.5-5.8,86.8c1.9,2.9,4.1,5.7,6.5,8.4
		c3.9,4.4,8.3,8.1,13.1,11.2c4.8,3.1,10,5.6,15.5,7.3c5.5,1.7,11.3,2.6,17.3,2.6c7.7,0,15-1.5,21.9-4.6c6.8-3,13-7.1,18.3-12.2
		c5.4-5,9.9-10.9,13.5-17.7c1-1.9,1.9-3.8,2.8-5.7c2.2-5,3.7-10,4.6-15.3C945.1,638.9,945.3,631.1,944.3,623.2z M888.8,616.1
		c-0.3,1.4-0.8,2.7-1.6,3.9c-0.8,1.2-1.7,2.1-2.7,2.8c-1.1,0.7-2.2,1-3.5,1c-1.2,0-2.4-0.3-3.4-0.9c-2.5-1.6-4-4-4.6-7
		c-0.6-3.1-0.1-5.8,1.4-8.3c0.6-1.1,1.5-2.1,2.7-3c1.2-0.9,2.5-1.3,3.8-1.3c2,0,3.7,0.9,5.2,2.6c1.5,1.7,2.4,3.7,2.6,5.8
		C889.1,613.2,889.1,614.7,888.8,616.1z M827.9,595.1c-3,5.4-5.3,11.1-6.9,17.2c-1.6,6.1-2.5,12.2-2.6,18.4
		c-0.1,6.2,0.5,12.3,1.9,18.4c0.9,4.2,2.2,8.3,3.9,12.2c1.5-22.5,3-45,4.5-67.4C828.4,594.2,828.2,594.6,827.9,595.1z"/>
	<path class="st11" d="M943.6,646.6c-0.9,5.2-2.4,10.3-4.6,15.3c-0.1-9.9-0.1-19.8-0.2-29.7c-0.1-10-0.2-20.1-0.3-30.2
		c2.9,6.7,4.8,13.7,5.8,21.1C945.3,631.1,945.1,638.9,943.6,646.6z"/>
	<path class="st11" d="M1055.5,638.2C1055.5,638.2,1055.5,638.2,1055.5,638.2c2.9-5.8,4.7-11.7,5.4-18c0.7-6.2,0.2-12.4-1.4-18.6
		c-1-3.7-2.4-7.3-4.3-10.6c-1.2-2.2-2.7-4.3-4.3-6.3c-2.5-3.2-5.4-6.1-8.8-8.5c-3.4-2.4-7-4.5-10.8-6.1c-5.2-2.2-10.7-3.7-16.4-4.5
		c-5.7-0.7-11.4-1.2-17.1-1.3h-59.6c0,7.9,0.1,15.7,0.1,23.6c2.1,3.1,3.9,6.4,5.6,9.8l0,0.1c3.5,7.7,5.8,15.9,7,24.4
		c1.1,8.5,0.9,17.2-0.7,25.6c-1.4,7.9-4.1,15.6-8.1,23c-1,1.8-2,3.5-3.1,5.1c0,8,0,16.1,0,24.1h16c3.8,0,7.8,0,12,0.1
		c4.2,0.1,8.2,0.1,12,0.1h16c0-6,0-11.9-0.1-17.8c-0.1-5.9-0.1-11.8-0.1-17.8l0.4,0.2h0.4c0.5,1.1,1.6,3.4,3.3,6.7
		c1.7,3.4,3.5,6.9,5.3,10.7c1.9,3.8,3.7,7.4,5.3,10.7c1.7,3.4,2.8,5.5,3.3,6.5h44.3l-1.3-4.5l-12.2-42
		C1048.6,648.9,1052.6,644,1055.5,638.2z M1006.3,608.9c-0.7,1.4-2,2.4-3.8,3c-1.4,0.4-2.7,0.6-4,0.6c-1.3,0-2.6-0.1-4-0.4
		c-0.1-3.1-0.2-6.2-0.2-9.2v-9.2c1.2-0.1,2.6-0.1,3.9,0c1.4,0.1,2.6,0.5,3.6,1.1c1.5,1.1,2.7,2.5,3.7,4.2c1,1.7,1.6,3.4,1.7,5.1
		C1007.3,606,1007,607.5,1006.3,608.9z"/>
	<path class="st11" d="M944.3,623.2c-1-7.4-2.9-14.4-5.8-21.1c0.1,10.1,0.2,20.2,0.3,30.2c0.1,9.8,0.2,19.7,0.2,29.7
		c2.2-5,3.7-10,4.6-15.3C945.1,638.9,945.3,631.1,944.3,623.2z M1055.5,638.2C1055.5,638.2,1055.5,638.2,1055.5,638.2
		c2.9-5.8,4.7-11.7,5.4-18c0.7-6.2,0.2-12.4-1.4-18.6c-1-3.7-2.4-7.3-4.3-10.6c-1.2-2.2-2.7-4.3-4.3-6.3c-2.5-3.2-5.4-6.1-8.8-8.5
		c-3.4-2.4-7-4.5-10.8-6.1c-5.2-2.2-10.7-3.7-16.4-4.5c-5.7-0.7-11.4-1.2-17.1-1.3h-59.6c0,7.9,0.1,15.7,0.1,23.6
		c2.1,3.1,3.9,6.4,5.6,9.8l0,0.1c3.5,7.7,5.8,15.9,7,24.4c1.1,8.5,0.9,17.2-0.7,25.6c-1.4,7.9-4.1,15.6-8.1,23c-1,1.8-2,3.5-3.1,5.1
		c0,8,0,16.1,0,24.1h16c3.8,0,7.8,0,12,0.1c4.2,0.1,8.2,0.1,12,0.1h16c0-6,0-11.9-0.1-17.8c-0.1-5.9-0.1-11.8-0.1-17.8l0.4,0.2h0.4
		c0.5,1.1,1.6,3.4,3.3,6.7c1.7,3.4,3.5,6.9,5.3,10.7c1.9,3.8,3.7,7.4,5.3,10.7c1.7,3.4,2.8,5.5,3.3,6.5h44.3l-1.3-4.5l-12.2-42
		C1048.6,648.9,1052.6,644,1055.5,638.2z M1006.3,608.9c-0.7,1.4-2,2.4-3.8,3c-1.4,0.4-2.7,0.6-4,0.6c-1.3,0-2.6-0.1-4-0.4
		c-0.1-3.1-0.2-6.2-0.2-9.2v-9.2c1.2-0.1,2.6-0.1,3.9,0c1.4,0.1,2.6,0.5,3.6,1.1c1.5,1.1,2.7,2.5,3.7,4.2c1,1.7,1.6,3.4,1.7,5.1
		C1007.3,606,1007,607.5,1006.3,608.9z"/>
	<path class="st11" d="M1138.4,640.9c-9,0.1-17.9,0.2-26.9,0.3c0-1.9,0-3.7-0.1-5.6c-0.1-1.9-0.1-3.7-0.1-5.6h38.7v-3.2
		c0-1.6,0-3.3,0.1-5c0.1-1.7,0.1-3.4,0.1-5v-3.2h-38.9v-2.2c0-0.7-0.1-1.5-0.2-2.2h15.4c3.7,0,7.5,0,11.5-0.1
		c4-0.1,7.8-0.1,11.5-0.1c3.7,0,6.9,0,9.6-0.1c2.7-0.1,4.7-0.1,5.8-0.1v-43.5h-15.5c-3.6,0-7.5,0-11.5,0.1c-4,0.1-7.9,0.1-11.5,0.1
		h-15.5l-0.2-0.2H1055c0,2.7,0,7.4,0.1,14.1c0.4,0.4,0.7,0.9,1.1,1.4c4.7,5.8,8,12.3,9.8,19.4c1.8,6.9,2.3,14,1.6,21
		c-0.8,7-2.8,13.8-6.1,20.3c-1.7,3.3-3.6,6.3-5.9,9.2c0,4,0.1,7.8,0.1,11.6c0,3,0,5.9,0.1,8.7l8.7,30.1c6.5-0.1,13-0.1,19.4-0.2
		c9.4-0.1,18.8-0.1,28.1-0.1h5.8c2.7,0,5.9,0,9.4-0.1c3.6-0.1,7.3-0.1,11.3-0.1c4,0,7.8,0,11.4-0.1c3.6-0.1,6.8-0.1,9.5-0.1h5.6
		v-17.1c0-4,0-8.3,0.1-12.7c0.1-4.4,0.1-8.6,0.1-12.6v-17C1156.3,640.8,1147.4,640.9,1138.4,640.9z M1055.8,695.2v4.5h1.3
		L1055.8,695.2z M1059.5,601.7c-1-3.7-2.4-7.3-4.3-10.6c0,4.1,0.1,8.4,0.1,13c0.1,9.2,0.1,18.8,0.2,29c0,1.7,0,3.4,0,5.1
		c2.9-5.7,4.7-11.7,5.4-17.9C1061.6,614.1,1061.1,607.9,1059.5,601.7z"/>
	<path class="st11" d="M796.8,564.7v64.1c-1.7-0.1-3-1-4-2.6c-1.1-1.9-1.9-4-2.3-6.4c-0.5-2.4-0.8-4.8-1.1-7.2
		c-0.9-7.8-1.4-15.6-1.5-23.5c-0.1-7.9-0.3-15.8-0.6-23.7h-41.1c2.1,22.7,8.5,90.6,9.6,102.3l1.6,4.7c1.4,4.2,2.7,8,3.8,11.6l3,9.3
		c0.9,2.7,1.5,4.5,1.9,5.6l0.5,1.3h54.7c0.6-7.7,1.2-15.4,1.8-23.1c1.1-13.3,2.1-26.5,3.1-39.7c0.1-1.7,0.3-3.3,0.4-5
		c1.7-22.5,3.5-45.1,5.2-67.8H796.8z"/>
</g>
<g id="Layer_2">
</g>
</svg>
